<?xml version="1.0" encoding="UTF-8" standalone="no"?>
<!-- Created with Inkscape (http://www.inkscape.org/) -->

<svg
   width="163mm"
   height="53mm"
   viewBox="0 0 163 53"
   version="1.1"
   id="svg931"
   inkscape:version="1.1 (c4e8f9e, 2021-05-24)"
   sodipodi:docname="logo-de-pilas.svg"
   xmlns:inkscape="http://www.inkscape.org/namespaces/inkscape"
   xmlns:sodipodi="http://sodipodi.sourceforge.net/DTD/sodipodi-0.dtd"
   xmlns="http://www.w3.org/2000/svg"
   xmlns:svg="http://www.w3.org/2000/svg">
  <sodipodi:namedview
     id="namedview933"
     pagecolor="#ffffff"
     bordercolor="#666666"
     borderopacity="1.0"
     inkscape:pageshadow="2"
     inkscape:pageopacity="0.0"
     inkscape:pagecheckerboard="0"
     inkscape:document-units="mm"
     showgrid="false"
     height="296mm"
     inkscape:zoom="0.48996914"
     inkscape:cx="308.18268"
     inkscape:cy="242.87244"
     inkscape:window-width="1280"
     inkscape:window-height="778"
     inkscape:window-x="0"
     inkscape:window-y="0"
     inkscape:window-maximized="1"
     inkscape:current-layer="g363" />
  <defs
     id="defs928">
    <clipPath
       clipPathUnits="userSpaceOnUse"
       id="clipPath369">
      <path
         d="M 0,630 H 810 V 0 H 0 Z"
         id="path367" />
    </clipPath>
  </defs>
  <g
     inkscape:label="Capa 1"
     inkscape:groupmode="layer"
     id="layer1">
    <g
       id="g363"
       transform="matrix(0.35277777,0,0,-0.35277777,-168.23994,239.99843)">
      <g
         id="g1341"
         transform="translate(-147.71339,172.20473)">
        <g
           id="g371"
           transform="translate(660.7031,483.4409)">
          <path
             d="m 0,0 c -0.39,0.459 -0.737,0.936 -1.088,1.411 -0.345,0.478 -0.671,0.963 -0.977,1.456 -0.309,0.493 -0.819,0.903 -0.868,1.501 -0.039,0.293 -0.046,0.598 0.008,0.929 0.048,0.328 0.138,0.673 0.35,1.067 l 0.222,0.09 C -1.927,6.318 -1.622,6.132 -1.36,5.93 -1.091,5.729 -0.882,5.506 -0.708,5.268 -0.326,4.805 -0.408,4.155 -0.286,3.586 -0.165,3.019 -0.062,2.443 0.023,1.86 0.103,1.275 0.184,0.691 0.223,0.089 Z"
             style="fill:#151214;fill-opacity:1;fill-rule:nonzero;stroke:none"
             id="path373" />
        </g>
        <g
           id="g375"
           transform="translate(671.7568,486.9917)">
          <path
             d="m 0,0 c 0.039,1.37 0.141,2.729 0.21,4.095 0.089,1.362 0.198,2.721 0.325,4.075 0.065,0.679 0.084,1.363 0.117,2.046 0.038,0.683 0.147,1.352 0.328,2.011 0.186,0.657 0.407,1.308 0.693,1.948 0.278,0.641 0.602,1.275 1.055,1.887 L 2.965,16.021 C 3.189,15.295 3.287,14.59 3.338,13.893 3.396,13.194 3.391,12.507 3.348,11.826 3.303,11.145 3.186,10.477 2.996,9.82 2.801,9.164 2.594,8.511 2.431,7.85 2.104,6.528 1.76,5.21 1.394,3.895 1.007,2.583 0.654,1.266 0.238,-0.041 Z"
             style="fill:#151214;fill-opacity:1;fill-rule:nonzero;stroke:none"
             id="path377" />
        </g>
        <g
           id="g379"
           transform="translate(645.3594,452.5747)">
          <path
             d="M 0,0 C 13.638,3.536 28.788,9.193 43.638,20.608 52.325,-14.141 57.981,-50.103 57.882,-85.458 34.243,-85.054 10.606,-84.65 -13.03,-84.246 -3.233,-56.77 3.233,-28.385 0,0"
             style="fill:#8ec539;fill-opacity:1;fill-rule:nonzero;stroke:none"
             id="path381" />
        </g>
        <g
           id="g383"
           transform="translate(645.3594,452.5747)">
          <path
             d="M 0,0 C 13.638,3.536 28.788,9.193 43.638,20.608 52.325,-14.141 57.981,-50.103 57.882,-85.458 34.243,-85.054 10.606,-84.65 -13.03,-84.246 -3.233,-56.77 3.233,-28.385 0,0 Z"
             style="fill:none;stroke:#151214;stroke-width:3;stroke-linecap:butt;stroke-linejoin:miter;stroke-miterlimit:4;stroke-dasharray:none;stroke-opacity:1"
             id="path385" />
        </g>
        <g
           id="g387"
           transform="translate(631.8486,399.4219)">
          <path
             d="M 0,0 C 27.274,-19.396 62.125,-9.092 75.459,22.728"
             style="fill:none;stroke:#151214;stroke-width:3;stroke-linecap:butt;stroke-linejoin:miter;stroke-miterlimit:4;stroke-dasharray:none;stroke-opacity:1"
             id="path389" />
        </g>
        <g
           id="g391"
           transform="translate(657.4053,456.2119)">
          <path
             d="m 0,0 c -1.514,4.344 -2.576,8.384 -4.09,12.728 7.526,3.713 13.838,6.288 21.819,8.031 1.312,-3.637 3.158,-6.667 4.468,-10.304 C 16.012,6.414 8.385,2.98 0,0"
             style="fill:#8ec539;fill-opacity:1;fill-rule:nonzero;stroke:none"
             id="path393" />
        </g>
        <g
           id="g395"
           transform="translate(657.4053,456.2119)">
          <path
             d="m 0,0 c -1.514,4.344 -2.576,8.384 -4.09,12.728 7.526,3.713 13.838,6.288 21.819,8.031 1.312,-3.637 3.158,-6.667 4.468,-10.304 C 16.012,6.414 8.385,2.98 0,0 Z"
             style="fill:none;stroke:#151214;stroke-width:3;stroke-linecap:butt;stroke-linejoin:miter;stroke-miterlimit:4;stroke-dasharray:none;stroke-opacity:1"
             id="path397" />
        </g>
        <g
           id="g399"
           transform="translate(680.7158,393.7388)">
          <path
             d="M 0,0 C 1.465,-6.415 10.367,-12.462 20,-7.728 33.215,-1.232 29.193,8.485 19.546,15.91 13.543,8.707 9.688,4.867 0,0"
             style="fill:#c12c3a;fill-opacity:1;fill-rule:nonzero;stroke:none"
             id="path401" />
        </g>
        <g
           id="g403"
           transform="translate(680.7158,393.7388)">
          <path
             d="M 0,0 C 1.465,-6.415 10.367,-12.462 20,-7.728 33.215,-1.232 29.193,8.485 19.546,15.91 13.543,8.707 9.688,4.867 0,0 Z"
             style="fill:none;stroke:#151214;stroke-width:1.8;stroke-linecap:butt;stroke-linejoin:miter;stroke-miterlimit:4;stroke-dasharray:none;stroke-opacity:1"
             id="path405" />
        </g>
        <g
           id="g407"
           transform="translate(677.708,444.8247)">
          <path
             d="m 0,0 12.61,-1.029 0.576,-4.532 z"
             style="fill:#151214;fill-opacity:1;fill-rule:nonzero;stroke:none"
             id="path409" />
        </g>
        <g
           id="g411"
           transform="translate(677.708,444.8247)">
          <path
             d="m 0,0 12.61,-1.029 0.576,-4.532 z"
             style="fill:none;stroke:#151214;stroke-width:2.4;stroke-linecap:butt;stroke-linejoin:miter;stroke-miterlimit:4;stroke-dasharray:none;stroke-opacity:1"
             id="path413" />
        </g>
        <g
           id="g415"
           transform="translate(651.8271,434.1338)">
          <path
             d="M 0,0 -13.482,-5.226 0.84,-1.555 Z"
             style="fill:#151214;fill-opacity:1;fill-rule:nonzero;stroke:none"
             id="path417" />
        </g>
        <g
           id="g419"
           transform="translate(651.8271,434.1338)">
          <path
             d="M 0,0 -13.482,-5.226 0.84,-1.555 Z"
             style="fill:none;stroke:#151214;stroke-width:2.4;stroke-linecap:butt;stroke-linejoin:miter;stroke-miterlimit:4;stroke-dasharray:none;stroke-opacity:1"
             id="path421" />
        </g>
        <g
           id="g423"
           transform="translate(646.2041,471.5659)">
          <path
             d="m 0,0 c -0.381,0.017 -0.734,0.073 -1.091,0.125 -0.353,0.06 -0.694,0.135 -1.027,0.227 -0.331,0.092 -0.78,-0.001 -0.962,0.327 -0.1,0.15 -0.18,0.33 -0.226,0.566 -0.048,0.229 -0.073,0.497 -0.026,0.876 l 0.129,0.202 c 0.322,0.202 0.576,0.293 0.805,0.346 0.232,0.06 0.429,0.062 0.607,0.035 0.375,-0.025 0.48,-0.472 0.705,-0.732 0.224,-0.261 0.438,-0.539 0.639,-0.834 0.199,-0.301 0.4,-0.599 0.576,-0.936 z"
             style="fill:#151214;fill-opacity:1;fill-rule:nonzero;stroke:none"
             id="path425" />
        </g>
        <g
           id="g427"
           transform="translate(651.7822,478.5605)">
          <path
             d="m 0,0 c -1.031,0.951 -2.014,1.944 -3.021,2.915 -0.993,0.984 -1.969,1.981 -2.93,2.991 -0.483,0.504 -0.998,0.98 -1.502,1.465 -0.501,0.487 -0.947,1.022 -1.334,1.602 -0.387,0.583 -0.744,1.188 -1.052,1.836 -0.313,0.643 -0.591,1.316 -0.766,2.071 l 0.185,0.152 c 0.707,-0.318 1.315,-0.719 1.885,-1.149 0.577,-0.425 1.103,-0.893 1.599,-1.384 0.497,-0.493 0.935,-1.032 1.319,-1.618 0.378,-0.588 0.746,-1.185 1.148,-1.755 0.807,-1.137 1.598,-2.286 2.375,-3.448 0.758,-1.177 1.545,-2.33 2.281,-3.526 z"
             style="fill:#151214;fill-opacity:1;fill-rule:nonzero;stroke:none"
             id="path429" />
        </g>
        <g
           id="g431"
           transform="translate(692.0283,416.5879)">
          <path
             d="M 0,0 C 0.005,-8.828 -6.742,-15.988 -15.068,-15.993 -23.395,-16 -30.148,-8.846 -30.153,-0.017 V 0 c 0,8.829 6.75,15.986 15.076,15.986 C -6.75,15.986 0,8.829 0,0"
             style="fill:#ffffff;fill-opacity:1;fill-rule:nonzero;stroke:none"
             id="path433" />
        </g>
        <g
           id="g435"
           transform="translate(692.0283,416.5879)">
          <path
             d="M 0,0 C 0.005,-8.828 -6.742,-15.988 -15.068,-15.993 -23.395,-16 -30.148,-8.846 -30.153,-0.017 V 0 c 0,8.829 6.75,15.986 15.076,15.986 C -6.75,15.986 0,8.829 0,0 Z"
             style="fill:none;stroke:#151214;stroke-width:2.4;stroke-linecap:butt;stroke-linejoin:miter;stroke-miterlimit:4;stroke-dasharray:none;stroke-opacity:1"
             id="path437" />
        </g>
        <g
           id="g439"
           transform="translate(658.7119,411.9673)">
          <path
             d="m 0,0 c 0,-5.105 -4.24,-9.243 -9.471,-9.243 -5.23,0 -9.468,4.138 -9.468,9.243 0,5.105 4.238,9.243 9.468,9.243 C -4.24,9.243 0,5.105 0,0"
             style="fill:#ffffff;fill-opacity:1;fill-rule:nonzero;stroke:none"
             id="path441" />
        </g>
        <g
           id="g443"
           transform="translate(658.7119,411.9673)">
          <path
             d="m 0,0 c 0,-5.105 -4.24,-9.243 -9.471,-9.243 -5.23,0 -9.468,4.138 -9.468,9.243 0,5.105 4.238,9.243 9.468,9.243 C -4.24,9.243 0,5.105 0,0 Z"
             style="fill:none;stroke:#151214;stroke-width:2.4;stroke-linecap:butt;stroke-linejoin:miter;stroke-miterlimit:4;stroke-dasharray:none;stroke-opacity:1"
             id="path445" />
        </g>
        <g
           id="g447"
           transform="translate(678.9658,414.9849)">
          <path
             d="m 0,0 c 0,-1.07 -0.867,-1.938 -1.938,-1.938 -1.07,0 -1.938,0.868 -1.938,1.938 0,1.071 0.868,1.938 1.938,1.938 C -0.867,1.938 0,1.072 0,0"
             style="fill:#151214;fill-opacity:1;fill-rule:nonzero;stroke:none"
             id="path449" />
        </g>
        <g
           id="g451"
           transform="translate(678.9658,414.9849)">
          <path
             d="m 0,0 c 0,-1.07 -0.867,-1.938 -1.938,-1.938 -1.07,0 -1.938,0.868 -1.938,1.938 0,1.071 0.868,1.938 1.938,1.938 C -0.867,1.938 0,1.072 0,0 Z"
             style="fill:none;stroke:#151214;stroke-width:1.2;stroke-linecap:butt;stroke-linejoin:miter;stroke-miterlimit:4;stroke-dasharray:none;stroke-opacity:1"
             id="path453" />
        </g>
        <g
           id="g455"
           transform="translate(652.0127,411.2583)">
          <path
             d="m 0,0 c 0,-1.473 -1.192,-2.667 -2.666,-2.667 -1.473,0 -2.666,1.194 -2.666,2.667 0,1.473 1.193,2.667 2.666,2.667 C -1.192,2.667 0,1.474 0,0"
             style="fill:#151214;fill-opacity:1;fill-rule:nonzero;stroke:none"
             id="path457" />
        </g>
        <g
           id="g459"
           transform="translate(652.0127,411.2583)">
          <path
             d="m 0,0 c 0,-1.473 -1.192,-2.667 -2.666,-2.667 -1.473,0 -2.666,1.194 -2.666,2.667 0,1.473 1.193,2.667 2.666,2.667 C -1.192,2.667 0,1.474 0,0 Z"
             style="fill:none;stroke:#151214;stroke-width:1.2;stroke-linecap:butt;stroke-linejoin:miter;stroke-miterlimit:4;stroke-dasharray:none;stroke-opacity:1"
             id="path461" />
        </g>
        <g
           id="g463"
           transform="translate(691.8887,400.6919)">
          <path
             d="M 0,0 C 2.349,-1.969 4.433,-4.682 5.435,-7.793"
             style="fill:none;stroke:#151214;stroke-width:2.4;stroke-linecap:butt;stroke-linejoin:miter;stroke-miterlimit:4;stroke-dasharray:none;stroke-opacity:1"
             id="path465" />
        </g>
      </g>
      <g
         id="g1362"
         transform="translate(-133.93701,163.78583)">
        <g
           id="g467"
           transform="matrix(1.6926983,0,0,1.6926983,891.47872,439.37533)">
          <path
             d="M 0,0 C -3.894,0 -5.822,-3.289 -5.973,-6.049 H 6.011 C 5.973,-3.365 4.158,0 0,0 m -8.959,-7.221 c 0,5.293 3.781,9.563 8.997,9.563 5.519,0 8.771,-4.309 8.771,-9.789 V -8.166 H -5.936 c 0.229,-3.438 2.61,-6.311 6.541,-6.311 2.118,0 4.196,0.831 5.67,2.342 l 1.362,-1.851 c -1.854,-1.815 -4.31,-2.837 -7.258,-2.837 -5.444,0 -9.338,3.895 -9.338,9.602"
             style="fill:#141113;fill-opacity:1;fill-rule:nonzero;stroke:none"
             id="path469" />
        </g>
        <g
           id="g471"
           transform="matrix(1.6926983,0,0,1.6926983,935.0525,411.66654)">
          <path
             d="m 0,0 v 11.947 c 0,3.251 -1.662,4.233 -4.119,4.233 -2.232,0 -4.311,-1.361 -5.407,-2.836 V 0 h -2.835 v 18.26 h 2.835 v -2.646 c 1.286,1.551 3.781,3.099 6.54,3.099 3.78,0 5.783,-1.927 5.783,-5.896 V 0.002 H 0 Z"
             style="fill:#141113;fill-opacity:1;fill-rule:nonzero;stroke:none"
             id="path473" />
        </g>
        <g
           id="g475"
           transform="matrix(1.6926983,0,0,1.6926983,971.84228,420.56235)">
          <path
             d="m 0,0 v 8.015 c -1.021,1.548 -3.213,2.91 -5.443,2.91 -3.705,0 -5.897,-2.91 -5.897,-6.955 0,-4.008 2.192,-6.918 5.897,-6.918 2.228,0 4.422,1.36 5.443,2.948 m -13.268,-9.904 1.436,2.041 c 1.513,-1.777 3.326,-2.457 5.936,-2.457 3.023,0 5.896,1.475 5.896,5.33 v 2.761 c -1.361,-1.854 -3.59,-3.253 -6.162,-3.253 -4.762,0 -8.127,3.554 -8.127,9.452 0,5.859 3.327,9.486 8.127,9.486 2.457,0 4.687,-1.209 6.162,-3.211 v 2.76 H 2.836 V -4.99 c 0,-5.783 -4.272,-7.672 -8.732,-7.672 -3.064,-0.002 -5.18,0.604 -7.372,2.758"
             style="fill:#141113;fill-opacity:1;fill-rule:nonzero;stroke:none"
             id="path477" />
        </g>
        <path
           d="m 986.23716,442.57606 h 4.7988 v -30.90867 h -4.7988 z m -0.83281,7.61206 c 0,1.79257 1.47265,3.26352 3.26183,3.26352 1.79426,0 3.2009,-1.47095 3.2009,-3.26352 0,-1.79087 -1.40833,-3.19751 -3.2009,-3.19751 -1.78749,0 -3.26183,1.40664 -3.26183,3.19751"
           style="fill:#141113;fill-opacity:1;fill-rule:nonzero;stroke:none;stroke-width:1.6927"
           id="path479" />
        <g
           id="g481"
           transform="matrix(1.6926983,0,0,1.6926983,1021.5553,411.66654)">
          <path
             d="m 0,0 v 11.947 c 0,3.251 -1.662,4.233 -4.119,4.233 -2.231,0 -4.311,-1.361 -5.406,-2.836 V 0 h -2.835 v 18.26 h 2.835 v -2.646 c 1.286,1.551 3.781,3.099 6.54,3.099 3.779,0 5.783,-1.927 5.783,-5.896 V 0.002 H 0 Z"
             style="fill:#141113;fill-opacity:1;fill-rule:nonzero;stroke:none"
             id="path483" />
        </g>
        <g
           id="g485"
           transform="matrix(1.6926983,0,0,1.6926983,1049.3245,439.37533)">
          <path
             d="M 0,0 C -3.894,0 -5.821,-3.289 -5.972,-6.049 H 6.011 C 5.974,-3.365 4.159,0 0,0 m -8.96,-7.221 c 0,5.293 3.781,9.563 8.998,9.563 5.518,0 8.77,-4.309 8.77,-9.789 V -8.166 H -5.935 c 0.227,-3.438 2.61,-6.311 6.539,-6.311 2.118,0 4.196,0.831 5.67,2.342 l 1.362,-1.851 c -1.852,-1.815 -4.31,-2.837 -7.258,-2.837 -5.443,0 -9.338,3.895 -9.338,9.602"
             style="fill:#141113;fill-opacity:1;fill-rule:nonzero;stroke:none"
             id="path487" />
        </g>
        <g
           id="g489"
           transform="matrix(1.6926983,0,0,1.6926983,757.10759,426.3793)">
          <path
             d="m 0,0 c 0,3.137 -1.891,5.291 -4.65,5.291 -1.549,0 -3.288,-0.869 -4.12,-2.08 v -6.425 c 0.793,-1.172 2.571,-2.118 4.12,-2.118 C -1.891,-5.332 0,-3.176 0,0 m -8.77,-6.805 v -9.299 h -4.801 V 9.108 H -8.77 V 6.803 c 1.399,1.777 3.402,2.76 5.633,2.76 4.687,0 8.09,-3.478 8.09,-9.563 0,-6.088 -3.403,-9.604 -8.09,-9.604 -2.156,0 -4.121,0.908 -5.633,2.799"
             style="fill:#141113;fill-opacity:1;fill-rule:nonzero;stroke:none"
             id="path491" />
        </g>
        <path
           d="m 771.43713,441.79911 h 8.12833 v -30.90529 h -8.12833 z m -0.76849,8.19097 c 0,2.68631 2.17681,4.7988 4.80049,4.7988 2.68801,0 4.86313,-2.1108 4.86313,-4.7988 0,-2.6897 -2.17512,-4.86482 -4.86313,-4.86482 -2.62368,0 -4.80049,2.17681 -4.80049,4.86482"
           style="fill:#141113;fill-opacity:1;fill-rule:nonzero;stroke:none;stroke-width:1.6927"
           id="path493" />
        <path
           d="m 787.62609,453.57183 h 8.12665 v -42.67801 h -8.12665 z"
           style="fill:#141113;fill-opacity:1;fill-rule:nonzero;stroke:none;stroke-width:1.6927"
           id="path495" />
        <g
           id="g497"
           transform="matrix(1.6926983,0,0,1.6926983,822.36907,418.3158)">
          <path
             d="m 0,0 v 2.268 c -0.793,1.058 -2.306,1.626 -3.855,1.626 -1.891,0 -3.441,-1.021 -3.441,-2.76 0,-1.739 1.55,-2.722 3.441,-2.722 1.549,0 3.06,0.529 3.855,1.588 m 0,-4.385 v 1.927 c -1.246,-1.511 -3.402,-2.382 -5.783,-2.382 -2.912,0 -6.313,1.966 -6.313,6.05 0,4.31 3.403,5.895 6.313,5.895 2.457,0 4.574,-0.792 5.783,-2.228 v 2.305 c 0,1.851 -1.588,3.062 -4.008,3.062 -1.928,0 -3.742,-0.756 -5.254,-2.155 l -1.889,3.364 c 2.229,2.003 5.103,2.873 7.977,2.873 4.195,0 8.013,-1.662 8.013,-6.918 V -4.385 Z"
             style="fill:#141113;fill-opacity:1;fill-rule:nonzero;stroke:none"
             id="path499" />
        </g>
        <g
           id="g501"
           transform="matrix(1.6926983,0,0,1.6926983,835.87104,414.92295)">
          <path
             d="M 0,0 2.078,3.478 C 3.439,2.194 6.123,0.946 8.391,0.946 c 2.08,0 3.062,0.793 3.062,1.928 0,2.986 -10.811,0.529 -10.811,7.711 0,3.062 2.645,5.746 7.485,5.746 3.061,0 5.519,-1.058 7.334,-2.495 l -1.929,-3.402 c -1.096,1.135 -3.175,2.117 -5.405,2.117 -1.739,0 -2.874,-0.756 -2.874,-1.777 0,-2.684 10.849,-0.416 10.849,-7.787 0,-3.364 -2.872,-5.823 -7.938,-5.823 C 4.988,-2.836 1.926,-1.777 0,0"
             style="fill:#141113;fill-opacity:1;fill-rule:nonzero;stroke:none"
             id="path503" />
        </g>
      </g>
    </g>
  </g>
</svg>
